<svg aria-hidden="true" style="position: absolute; width: 0; height: 0; overflow: hidden;" version="1.1" xmlns="http://www.w3.org/2000/svg" xmlns:xlink="http://www.w3.org/1999/xlink">
<defs>
<symbol id="icon-book" viewBox="0 0 14 14">
<path d="M12.25 1.75v11.375h-9.188c-0.725 0-1.313-0.588-1.313-1.313s0.588-1.313 1.313-1.313h8.313v-10.5h-8.75c-0.962 0-1.75 0.787-1.75 1.75v10.5c0 0.963 0.788 1.75 1.75 1.75h10.5v-12.25h-0.875z"></path>
<path d="M3.063 11.375v0c-0 0-0.001 0-0.001 0-0.242 0-0.438 0.196-0.438 0.438s0.196 0.438 0.438 0.438c0 0 0.001-0 0.001-0v0h8.311v-0.875h-8.311z"></path>
</symbol>
<symbol id="icon-cross" viewBox="0 0 14 14">
<path d="M13.872 11.247c-0-0-0-0-0-0l-4.247-4.247 4.247-4.247c0-0 0-0 0-0 0.046-0.046 0.079-0.099 0.1-0.156 0.058-0.156 0.025-0.337-0.1-0.463l-2.006-2.006c-0.125-0.125-0.307-0.158-0.462-0.1-0.057 0.021-0.11 0.054-0.156 0.1 0 0-0 0-0 0l-4.247 4.247-4.247-4.247c-0-0-0-0-0-0-0.046-0.046-0.099-0.079-0.156-0.1-0.156-0.058-0.337-0.025-0.463 0.1l-2.006 2.006c-0.125 0.125-0.158 0.307-0.1 0.462 0.021 0.057 0.054 0.11 0.1 0.156 0 0 0 0 0 0l4.247 4.247-4.247 4.247c-0 0-0 0-0 0-0.046 0.046-0.079 0.099-0.1 0.156-0.058 0.156-0.025 0.337 0.1 0.463l2.006 2.006c0.125 0.125 0.307 0.158 0.463 0.1 0.057-0.021 0.11-0.054 0.156-0.1 0-0 0-0 0-0l4.247-4.247 4.247 4.247c0 0 0 0 0 0 0.046 0.046 0.099 0.079 0.156 0.1 0.156 0.058 0.337 0.025 0.462-0.1l2.006-2.006c0.125-0.125 0.158-0.307 0.1-0.463-0.021-0.057-0.054-0.11-0.1-0.156z"></path>
</symbol>
<symbol id="icon-arrow-right2" viewBox="0 0 14 14">
<path d="M8.494 11.994l4.375-4.375c0.342-0.342 0.342-0.896 0-1.237l-4.375-4.375c-0.342-0.342-0.896-0.342-1.237 0s-0.342 0.896 0 1.237l2.881 2.881h-8.388c-0.483 0-0.875 0.392-0.875 0.875s0.392 0.875 0.875 0.875h8.388l-2.881 2.881c-0.171 0.171-0.256 0.395-0.256 0.619s0.085 0.448 0.256 0.619c0.342 0.342 0.896 0.342 1.237 0z"></path>
</symbol>
</defs>
</svg>
